<svg width="26" height="26" viewBox="0 0 26 26" fill="none" xmlns="http://www.w3.org/2000/svg">
<path d="M16.9724 15.9996C18.2793 15.1701 19.2955 13.9509 19.8754 12.5117C20.4822 11.0058 20.5778 9.34229 20.1475 7.77677C19.7172 6.21126 18.7848 4.83032 17.4936 3.8461C16.2023 2.86189 14.6236 2.32883 13.0001 2.32883C11.3765 2.32883 9.79783 2.86189 8.50658 3.8461C7.21534 4.83032 6.28295 6.21126 5.85265 7.77677C5.42235 9.34229 5.51794 11.0058 6.12474 12.5117C6.70464 13.9509 7.7208 15.1701 9.02778 15.9996C6.22258 16.965 3.85567 18.9084 2.36314 21.4777C2.29294 21.5805 2.24451 21.6966 2.22084 21.8189C2.19692 21.9424 2.19881 22.0696 2.22638 22.1923C2.25396 22.3151 2.30664 22.4308 2.3811 22.5323C2.45555 22.6337 2.55019 22.7187 2.65905 22.7818C2.76792 22.8449 2.88866 22.8848 3.01369 22.899C3.13872 22.9132 3.26533 22.9014 3.38558 22.8643C3.50583 22.8272 3.6171 22.7657 3.71242 22.6836C3.80673 22.6023 3.8834 22.5026 3.93772 22.3906C4.85753 20.8025 6.17852 19.484 7.76838 18.5671C9.35932 17.6497 11.1636 17.1667 13.0001 17.1667C14.8366 17.1667 16.6408 17.6497 18.2318 18.5671C19.8216 19.484 21.1426 20.8025 22.0624 22.3906C22.1167 22.5026 22.1934 22.6023 22.2877 22.6836C22.383 22.7657 22.4943 22.8272 22.6146 22.8643C22.7348 22.9014 22.8614 22.9132 22.9865 22.899C23.1115 22.8848 23.2322 22.8449 23.3411 22.7818C23.45 22.7187 23.5446 22.6337 23.619 22.5323C23.6935 22.4308 23.7462 22.3151 23.7738 22.1923C23.8013 22.0696 23.8032 21.9424 23.7793 21.8189C23.7556 21.6966 23.7072 21.5805 23.637 21.4777C22.1445 18.9084 19.7776 16.965 16.9724 15.9996ZM7.41257 9.74997C7.41257 8.64487 7.74027 7.56458 8.35423 6.64572C8.9682 5.72686 9.84085 5.0107 10.8618 4.58779C11.8828 4.16489 13.0063 4.05424 14.0901 4.26983C15.174 4.48543 16.1696 5.01759 16.951 5.79901C17.7325 6.58044 18.2646 7.57604 18.4802 8.6599C18.6958 9.74377 18.5852 10.8672 18.1622 11.8882C17.7393 12.9092 17.0232 13.7818 16.1043 14.3958C15.1855 15.0098 14.1052 15.3375 13.0001 15.3375C11.5182 15.3375 10.097 14.7488 9.04911 13.7009C8.00125 12.6531 7.41257 11.2319 7.41257 9.74997Z" fill="#4B4B4B" stroke="#4B4B4B" stroke-width="0.2"/>
</svg>
