<svg width="32" height="32" viewBox="0 0 32 32" fill="none" xmlns="http://www.w3.org/2000/svg">
<path d="M17.7335 23.0333C17.4668 22.7667 17.3388 22.4444 17.3495 22.0666C17.3611 21.6889 17.5002 21.3667 17.7668 21.1L21.5335 17.3333H6.66683C6.28905 17.3333 5.97216 17.2053 5.71616 16.9493C5.46105 16.6942 5.3335 16.3778 5.3335 16C5.3335 15.6222 5.46105 15.3053 5.71616 15.0493C5.97216 14.7942 6.28905 14.6667 6.66683 14.6667H21.5335L17.7335 10.8666C17.4668 10.6 17.3335 10.2831 17.3335 9.91598C17.3335 9.54976 17.4668 9.23332 17.7335 8.96665C18.0002 8.69998 18.3171 8.56665 18.6842 8.56665C19.0504 8.56665 19.3668 8.69998 19.6335 8.96665L25.7335 15.0667C25.8668 15.2 25.9615 15.3444 26.0175 15.5C26.0726 15.6555 26.1002 15.8222 26.1002 16C26.1002 16.1778 26.0726 16.3444 26.0175 16.5C25.9615 16.6555 25.8668 16.8 25.7335 16.9333L19.6002 23.0666C19.3557 23.3111 19.0504 23.4333 18.6842 23.4333C18.3171 23.4333 18.0002 23.3 17.7335 23.0333V23.0333Z" fill="#4B4B4B"/>
</svg>
