<svg width="40" height="40" viewBox="0 0 40 40" fill="none" xmlns="http://www.w3.org/2000/svg">
<path d="M6.66683 6.66663C5.78277 6.66663 4.93493 7.01782 4.30981 7.64294C3.68469 8.26806 3.3335 9.1159 3.3335 9.99996V16.6666C4.21755 16.6666 5.0654 17.0178 5.69052 17.6429C6.31564 18.2681 6.66683 19.1159 6.66683 20C6.66683 20.884 6.31564 21.7319 5.69052 22.357C5.0654 22.9821 4.21755 23.3333 3.3335 23.3333V30C3.3335 30.884 3.68469 31.7319 4.30981 32.357C4.93493 32.9821 5.78277 33.3333 6.66683 33.3333H33.3335C34.2176 33.3333 35.0654 32.9821 35.6905 32.357C36.3156 31.7319 36.6668 30.884 36.6668 30V23.3333C35.7828 23.3333 34.9349 22.9821 34.3098 22.357C33.6847 21.7319 33.3335 20.884 33.3335 20C33.3335 19.1159 33.6847 18.2681 34.3098 17.6429C34.9349 17.0178 35.7828 16.6666 36.6668 16.6666V9.99996C36.6668 9.1159 36.3156 8.26806 35.6905 7.64294C35.0654 7.01782 34.2176 6.66663 33.3335 6.66663H6.66683ZM25.8335 11.6666L28.3335 14.1666L14.1668 28.3333L11.6668 25.8333L25.8335 11.6666ZM14.6835 11.7333C16.3168 11.7333 17.6335 13.05 17.6335 14.6833C17.6335 15.4657 17.3227 16.216 16.7695 16.7693C16.2162 17.3225 15.4659 17.6333 14.6835 17.6333C13.0502 17.6333 11.7335 16.3166 11.7335 14.6833C11.7335 13.9009 12.0443 13.1506 12.5975 12.5973C13.1508 12.0441 13.9011 11.7333 14.6835 11.7333M25.3168 22.3666C26.9502 22.3666 28.2668 23.6833 28.2668 25.3166C28.2668 26.099 27.956 26.8494 27.4028 27.4026C26.8496 27.9558 26.0992 28.2666 25.3168 28.2666C23.6835 28.2666 22.3668 26.95 22.3668 25.3166C22.3668 24.5342 22.6776 23.7839 23.2309 23.2307C23.7841 22.6774 24.5344 22.3666 25.3168 22.3666V22.3666Z" fill="#B84A4A"/>
</svg>
