<svg width="50" height="40" viewBox="0 0 50 40" fill="none" xmlns="http://www.w3.org/2000/svg">
<path d="M5 0C3.67392 0 2.40215 0.526784 1.46447 1.46447C0.526784 2.40215 0 3.67392 0 5V15C1.32608 15 2.59785 15.5268 3.53553 16.4645C4.47322 17.4021 5 18.6739 5 20C5 21.3261 4.47322 22.5979 3.53553 23.5355C2.59785 24.4732 1.32608 25 0 25V35C0 36.3261 0.526784 37.5979 1.46447 38.5355C2.40215 39.4732 3.67392 40 5 40H45C46.3261 40 47.5979 39.4732 48.5355 38.5355C49.4732 37.5979 50 36.3261 50 35V25C48.6739 25 47.4021 24.4732 46.4645 23.5355C45.5268 22.5979 45 21.3261 45 20C45 18.6739 45.5268 17.4021 46.4645 16.4645C47.4021 15.5268 48.6739 15 50 15V5C50 3.67392 49.4732 2.40215 48.5355 1.46447C47.5979 0.526784 46.3261 0 45 0H5ZM33.75 7.5L37.5 11.25L16.25 32.5L12.5 28.75L33.75 7.5ZM17.025 7.6C19.475 7.6 21.45 9.575 21.45 12.025C21.45 13.1986 20.9838 14.3241 20.1539 15.1539C19.3241 15.9838 18.1986 16.45 17.025 16.45C14.575 16.45 12.6 14.475 12.6 12.025C12.6 10.8514 13.0662 9.7259 13.8961 8.89605C14.7259 8.0662 15.8514 7.6 17.025 7.6ZM32.975 23.55C35.425 23.55 37.4 25.525 37.4 27.975C37.4 29.1486 36.9338 30.2741 36.104 31.104C35.2741 31.9338 34.1486 32.4 32.975 32.4C30.525 32.4 28.55 30.425 28.55 27.975C28.55 26.8014 29.0162 25.6759 29.8461 24.8461C30.6759 24.0162 31.8014 23.55 32.975 23.55Z" fill="#B84A4A"/>
</svg>
