<svg width="26" height="26" viewBox="0 0 26 26" fill="none" xmlns="http://www.w3.org/2000/svg">
<path d="M10.8336 2.70837C12.348 2.70831 13.8324 3.13154 15.1191 3.93029C16.4058 4.72904 17.4437 5.87152 18.1156 7.2288C18.7874 8.58608 19.0666 10.1041 18.9215 11.6117C18.7765 13.1192 18.2129 14.5561 17.2946 15.7604L22.4328 20.9008C22.6271 21.0957 22.7399 21.3573 22.7483 21.6325C22.7567 21.9076 22.6601 22.1756 22.478 22.382C22.296 22.5885 22.0422 22.7179 21.7682 22.744C21.4942 22.7701 21.2205 22.6909 21.0028 22.5225L20.901 22.4326L15.7606 17.2944C14.7346 18.0766 13.5372 18.6034 12.2673 18.831C10.9974 19.0585 9.69154 18.9805 8.45781 18.6031C7.22408 18.2258 6.09793 17.5602 5.17255 16.6612C4.24717 15.7623 3.54916 14.6559 3.13629 13.4336C2.72341 12.2113 2.60754 10.9083 2.79825 9.63229C2.98897 8.35633 3.48079 7.14413 4.23302 6.09599C4.98525 5.04785 5.97626 4.1939 7.12405 3.60482C8.27185 3.01573 9.54342 2.70844 10.8336 2.70837V2.70837ZM10.8336 4.87504C9.25331 4.87504 7.73778 5.50279 6.62038 6.6202C5.50297 7.7376 4.87522 9.25313 4.87522 10.8334C4.87522 12.4136 5.50297 13.9291 6.62038 15.0466C7.73778 16.164 9.25331 16.7917 10.8336 16.7917C12.4138 16.7917 13.9293 16.164 15.0467 15.0466C16.1641 13.9291 16.7919 12.4136 16.7919 10.8334C16.7919 9.25313 16.1641 7.7376 15.0467 6.6202C13.9293 5.50279 12.4138 4.87504 10.8336 4.87504Z" fill="#4B4B4B"/>
</svg>
