<svg width="54" height="34" viewBox="0 0 54 34" fill="none" xmlns="http://www.w3.org/2000/svg">
<rect width="54" height="34" fill="#0063B1"/>
<path d="M21.542 21.9873C21.0205 22.7666 20.3789 23.3408 19.6172 23.71C18.8613 24.0732 17.9297 24.2549 16.8223 24.2549C13.0547 24.2549 11.1709 22.1426 11.1709 17.918C11.1709 15.7559 11.6484 14.1592 12.6035 13.1279C13.5586 12.0967 14.9355 11.5811 16.7344 11.5811C17.9238 11.5811 18.8936 11.7832 19.6436 12.1875C20.3936 12.5859 20.9648 13.1104 21.3574 13.7607L19.4326 15.2549C19.1514 14.833 18.8936 14.5283 18.6592 14.3408C18.4248 14.1533 18.1582 14.0127 17.8594 13.9189C17.5605 13.8252 17.2031 13.7783 16.7871 13.7783C15.791 13.7783 15.0322 14.0977 14.5107 14.7363C13.9893 15.3691 13.7285 16.4297 13.7285 17.918C13.7285 19.3066 13.9717 20.3438 14.458 21.0293C14.9502 21.7148 15.7324 22.0576 16.8047 22.0576C17.5254 22.0576 18.085 21.9199 18.4834 21.6445C18.8877 21.3691 19.2539 21.0029 19.582 20.5459L21.542 21.9873ZM32.1152 20.4756C32.1152 21.6943 31.7139 22.6289 30.9111 23.2793C30.1143 23.9297 28.9365 24.2549 27.3779 24.2549C26.2998 24.2549 25.3623 24.0762 24.5654 23.7188C23.7744 23.3613 23.1299 22.7842 22.6318 21.9873L24.5391 20.5283C24.8203 20.9268 25.0869 21.2256 25.3389 21.4248C25.5908 21.624 25.8896 21.7793 26.2354 21.8906C26.5811 22.002 26.9795 22.0576 27.4307 22.0576C28.1045 22.0576 28.6289 21.9434 29.0039 21.7148C29.3848 21.4805 29.5752 21.126 29.5752 20.6514C29.5752 20.3818 29.5078 20.1562 29.373 19.9746C29.2441 19.793 29.0479 19.6377 28.7842 19.5088C28.5205 19.374 28.0635 19.2217 27.4131 19.0518C26.7803 18.8818 26.1826 18.7119 25.6201 18.542C25.0635 18.3662 24.5801 18.1406 24.1699 17.8652C23.7656 17.5898 23.4463 17.2441 23.2119 16.8281C22.9775 16.4121 22.8604 15.8877 22.8604 15.2549C22.8604 14.1006 23.25 13.2012 24.0293 12.5566C24.8086 11.9062 25.9248 11.5811 27.3779 11.5811C29.4814 11.5811 30.9697 12.3018 31.8428 13.7432L29.9531 15.2197C29.6191 14.7041 29.2441 14.335 28.8281 14.1123C28.4121 13.8896 27.917 13.7783 27.3428 13.7783C26.7686 13.7783 26.2998 13.8838 25.9365 14.0947C25.5791 14.2998 25.4004 14.625 25.4004 15.0703C25.4004 15.4629 25.5879 15.7646 25.9629 15.9756C26.3379 16.1807 26.9912 16.3887 27.9229 16.5996C28.4385 16.7344 28.9482 16.8809 29.4521 17.0391C29.9561 17.1914 30.4043 17.4053 30.7969 17.6807C31.1953 17.9561 31.5146 18.3164 31.7549 18.7617C31.9951 19.207 32.1152 19.7783 32.1152 20.4756ZM42.9258 20.4756C42.9258 21.6943 42.5244 22.6289 41.7217 23.2793C40.9248 23.9297 39.7471 24.2549 38.1885 24.2549C37.1104 24.2549 36.1729 24.0762 35.376 23.7188C34.585 23.3613 33.9404 22.7842 33.4424 21.9873L35.3496 20.5283C35.6309 20.9268 35.8975 21.2256 36.1494 21.4248C36.4014 21.624 36.7002 21.7793 37.0459 21.8906C37.3916 22.002 37.79 22.0576 38.2412 22.0576C38.915 22.0576 39.4395 21.9434 39.8145 21.7148C40.1953 21.4805 40.3857 21.126 40.3857 20.6514C40.3857 20.3818 40.3184 20.1562 40.1836 19.9746C40.0547 19.793 39.8584 19.6377 39.5947 19.5088C39.3311 19.374 38.874 19.2217 38.2236 19.0518C37.5908 18.8818 36.9932 18.7119 36.4307 18.542C35.874 18.3662 35.3906 18.1406 34.9805 17.8652C34.5762 17.5898 34.2568 17.2441 34.0225 16.8281C33.7881 16.4121 33.6709 15.8877 33.6709 15.2549C33.6709 14.1006 34.0605 13.2012 34.8398 12.5566C35.6191 11.9062 36.7354 11.5811 38.1885 11.5811C40.292 11.5811 41.7803 12.3018 42.6533 13.7432L40.7637 15.2197C40.4297 14.7041 40.0547 14.335 39.6387 14.1123C39.2227 13.8896 38.7275 13.7783 38.1533 13.7783C37.5791 13.7783 37.1104 13.8838 36.7471 14.0947C36.3896 14.2998 36.2109 14.625 36.2109 15.0703C36.2109 15.4629 36.3984 15.7646 36.7734 15.9756C37.1484 16.1807 37.8018 16.3887 38.7334 16.5996C39.249 16.7344 39.7588 16.8809 40.2627 17.0391C40.7666 17.1914 41.2148 17.4053 41.6074 17.6807C42.0059 17.9561 42.3252 18.3164 42.5654 18.7617C42.8057 19.207 42.9258 19.7783 42.9258 20.4756Z" fill="white"/>
</svg>
