<svg width="39" height="34" viewBox="0 0 39 34" fill="none" xmlns="http://www.w3.org/2000/svg">
<rect width="39" height="34" fill="#F7DF1E"/>
<path d="M16.8018 20.6865C16.8018 21.9697 16.4766 22.8896 15.8262 23.4463C15.1816 23.9971 14.168 24.2725 12.7852 24.2725C12.4863 24.2725 12.0703 24.2285 11.5371 24.1406C11.0039 24.0527 10.5615 23.9385 10.21 23.7979L10.9658 21.5918C11.1533 21.6914 11.4521 21.7969 11.8623 21.9082C12.2783 22.0195 12.6035 22.0752 12.8379 22.0752C13.2715 22.0752 13.585 22.0166 13.7783 21.8994C13.9717 21.7822 14.1094 21.5771 14.1914 21.2842C14.2734 20.9912 14.3145 20.5693 14.3145 20.0186V11.8359H16.8018V20.6865ZM28.2188 20.4756C28.2188 21.6943 27.8174 22.6289 27.0146 23.2793C26.2178 23.9297 25.04 24.2549 23.4814 24.2549C22.4033 24.2549 21.4658 24.0762 20.6689 23.7188C19.8779 23.3613 19.2334 22.7842 18.7354 21.9873L20.6426 20.5283C20.9238 20.9268 21.1904 21.2256 21.4424 21.4248C21.6943 21.624 21.9932 21.7793 22.3389 21.8906C22.6846 22.002 23.083 22.0576 23.5342 22.0576C24.208 22.0576 24.7324 21.9434 25.1074 21.7148C25.4883 21.4805 25.6787 21.126 25.6787 20.6514C25.6787 20.3818 25.6113 20.1562 25.4766 19.9746C25.3477 19.793 25.1514 19.6377 24.8877 19.5088C24.624 19.374 24.167 19.2217 23.5166 19.0518C22.8838 18.8818 22.2861 18.7119 21.7236 18.542C21.167 18.3662 20.6836 18.1406 20.2734 17.8652C19.8691 17.5898 19.5498 17.2441 19.3154 16.8281C19.0811 16.4121 18.9639 15.8877 18.9639 15.2549C18.9639 14.1006 19.3535 13.2012 20.1328 12.5566C20.9121 11.9062 22.0283 11.5811 23.4814 11.5811C25.585 11.5811 27.0732 12.3018 27.9463 13.7432L26.0566 15.2197C25.7227 14.7041 25.3477 14.335 24.9316 14.1123C24.5156 13.8896 24.0205 13.7783 23.4463 13.7783C22.8721 13.7783 22.4033 13.8838 22.04 14.0947C21.6826 14.2998 21.5039 14.625 21.5039 15.0703C21.5039 15.4629 21.6914 15.7646 22.0664 15.9756C22.4414 16.1807 23.0947 16.3887 24.0264 16.5996C24.542 16.7344 25.0518 16.8809 25.5557 17.0391C26.0596 17.1914 26.5078 17.4053 26.9004 17.6807C27.2988 17.9561 27.6182 18.3164 27.8584 18.7617C28.0986 19.207 28.2188 19.7783 28.2188 20.4756Z" fill="black"/>
</svg>
