<svg width="55" height="34" viewBox="0 0 55 34" fill="none" xmlns="http://www.w3.org/2000/svg">
<rect width="55" height="34" fill="#4F5B93"/>
<path d="M20.6094 15.9141C20.6094 17.3789 20.2637 18.4658 19.5723 19.1748C18.8867 19.8838 17.7705 20.2383 16.2236 20.2383H14.2021V24H11.7236V11.8359H16.2939C17.6709 11.8359 18.7344 12.1582 19.4844 12.8027C20.2344 13.4414 20.6094 14.4785 20.6094 15.9141ZM18.0518 15.9316C18.0518 15.2461 17.8613 14.751 17.4805 14.4463C17.1055 14.1416 16.4258 13.9893 15.4414 13.9893H14.2021V18.0762H15.2129C16.1211 18.0762 16.748 18.0146 17.0938 17.8916C17.4453 17.7627 17.6914 17.5488 17.832 17.25C17.9785 16.9512 18.0518 16.5117 18.0518 15.9316ZM29.8906 24V18.832H25.1006V24H22.6221V11.8359H25.1006V16.5645H29.8906V11.8359H32.3779V24H29.8906ZM43.9004 15.9141C43.9004 17.3789 43.5547 18.4658 42.8633 19.1748C42.1777 19.8838 41.0615 20.2383 39.5146 20.2383H37.4932V24H35.0146V11.8359H39.585C40.9619 11.8359 42.0254 12.1582 42.7754 12.8027C43.5254 13.4414 43.9004 14.4785 43.9004 15.9141ZM41.3428 15.9316C41.3428 15.2461 41.1523 14.751 40.7715 14.4463C40.3965 14.1416 39.7168 13.9893 38.7324 13.9893H37.4932V18.0762H38.5039C39.4121 18.0762 40.0391 18.0146 40.3848 17.8916C40.7363 17.7627 40.9824 17.5488 41.123 17.25C41.2695 16.9512 41.3428 16.5117 41.3428 15.9316Z" fill="white"/>
</svg>
