<svg width="52" height="34" viewBox="0 0 52 34" fill="none" xmlns="http://www.w3.org/2000/svg">
<rect width="52" height="34" fill="#0BABA2"/>
<path d="M20.1025 20.4756C20.1025 21.6943 19.7012 22.6289 18.8984 23.2793C18.1016 23.9297 16.9238 24.2549 15.3652 24.2549C14.2871 24.2549 13.3496 24.0762 12.5527 23.7188C11.7617 23.3613 11.1172 22.7842 10.6191 21.9873L12.5264 20.5283C12.8076 20.9268 13.0742 21.2256 13.3262 21.4248C13.5781 21.624 13.877 21.7793 14.2227 21.8906C14.5684 22.002 14.9668 22.0576 15.418 22.0576C16.0918 22.0576 16.6162 21.9434 16.9912 21.7148C17.3721 21.4805 17.5625 21.126 17.5625 20.6514C17.5625 20.3818 17.4951 20.1562 17.3604 19.9746C17.2314 19.793 17.0352 19.6377 16.7715 19.5088C16.5078 19.374 16.0508 19.2217 15.4004 19.0518C14.7676 18.8818 14.1699 18.7119 13.6074 18.542C13.0508 18.3662 12.5674 18.1406 12.1572 17.8652C11.7529 17.5898 11.4336 17.2441 11.1992 16.8281C10.9648 16.4121 10.8477 15.8877 10.8477 15.2549C10.8477 14.1006 11.2373 13.2012 12.0166 12.5566C12.7959 11.9062 13.9121 11.5811 15.3652 11.5811C17.4688 11.5811 18.957 12.3018 19.8301 13.7432L17.9404 15.2197C17.6064 14.7041 17.2314 14.335 16.8154 14.1123C16.3994 13.8896 15.9043 13.7783 15.3301 13.7783C14.7559 13.7783 14.2871 13.8838 13.9238 14.0947C13.5664 14.2998 13.3877 14.625 13.3877 15.0703C13.3877 15.4629 13.5752 15.7646 13.9502 15.9756C14.3252 16.1807 14.9785 16.3887 15.9102 16.5996C16.4258 16.7344 16.9355 16.8809 17.4395 17.0391C17.9434 17.1914 18.3916 17.4053 18.7842 17.6807C19.1826 17.9561 19.502 18.3164 19.7422 18.7617C19.9824 19.207 20.1025 19.7783 20.1025 20.4756ZM32.1172 26.751C31.918 26.8154 31.5723 26.8828 31.0801 26.9531C30.5879 27.0234 30.1191 27.0586 29.6738 27.0586C27.3359 27.0586 25.9854 26.0918 25.6221 24.1582C24.374 23.9707 23.3926 23.3701 22.6777 22.3564C21.9629 21.3428 21.6055 19.8633 21.6055 17.918C21.6055 15.8906 22.0273 14.3291 22.8711 13.2334C23.7207 12.1318 25.0508 11.5811 26.8613 11.5811C28.6602 11.5811 29.9785 12.1348 30.8164 13.2422C31.6602 14.3438 32.082 15.9023 32.082 17.918C32.082 21.498 30.8281 23.5664 28.3203 24.123C28.3789 24.4395 28.5049 24.668 28.6982 24.8086C28.8916 24.9551 29.2402 25.0283 29.7441 25.0283C30.0078 25.0283 30.3125 24.999 30.6582 24.9404C31.0098 24.8877 31.3057 24.8262 31.5459 24.7559L32.1172 26.751ZM29.5244 17.918C29.5244 16.4766 29.3193 15.4277 28.9092 14.7715C28.5049 14.1094 27.8223 13.7783 26.8613 13.7783C25.8652 13.7783 25.165 14.1094 24.7607 14.7715C24.3623 15.4277 24.1631 16.4766 24.1631 17.918C24.1631 19.3594 24.3652 20.4111 24.7695 21.0732C25.1797 21.7295 25.877 22.0576 26.8613 22.0576C27.8457 22.0576 28.5342 21.7236 28.9268 21.0557C29.3252 20.3877 29.5244 19.3418 29.5244 17.918ZM34.1562 24V11.8359H36.6348V21.7324H41.75V24H34.1562Z" fill="white"/>
</svg>
